<svg id="Layer_1" data-name="Layer 1" xmlns="http://www.w3.org/2000/svg" viewBox="0 0 495 118"><title>answer_v2</title><path d="M81.32,81.1l-1-2.58h-31l-2.58,6.14c-3.2,7.62-2,12.66,3.93,15.61H28.59c2.58-2.82,5.28-8.35,8.6-16.34L60.42,28.49,55.38,16c7.13,0,18.08-4.06,22.75-11.8l33.06,82.23c2.71,6.89,5.41,11.31,7.62,13.89H75.91C83.41,96.34,84.76,89.7,81.32,81.1ZM76.9,69.91,65.22,40.66,52.93,69.91Z"/><path d="M164.42,86.51v-32c0-5.66-2.33-8.49-6.76-8.49a8.85,8.85,0,0,0-6.15,2.34V86.51c0,7,.86,9.83,4.06,13.76H122.5c4.18-3.44,5.66-7,5.66-13.76V60.32c0-8.48-1.35-11.92-5.66-14.87L150.9,33.9V44c3.07-5.9,10.2-10.07,17.82-10.07,12.17,0,19.06,7.25,19.06,19.91v32.7c0,6.39,1.35,10.32,4.79,13.76H160.36C163.31,96.83,164.42,93.14,164.42,86.51Z"/><path d="M201.05,96.71V76.55c7.75,10.08,18.44,16.72,27,16.72,3.56,0,5.78-1.85,5.78-5.16,0-2.59-1.73-4.06-6.4-5.9l-12.41-4.55c-10.57-3.94-15.74-10.82-15.74-21.27,0-13.15,10.82-22.49,25.94-22.49,8.24,0,17.33,2.33,21.88,5.65v18c-5.53-8.73-16.35-15.37-24.46-15.37-3.93,0-5.9,1.35-5.9,4.18,0,2.58,1.23,3.93,6.15,5.9l12.29,5c11.55,4.67,15.85,11.31,15.85,20.9,0,14.38-10.44,24-26.18,24A56.39,56.39,0,0,1,201.05,96.71Z"/><path d="M354.1,35.74c-2.34,2.46-3.44,5-5.41,9.71l-23.48,55.44h-2L303.33,57.37,284.4,100.89h-1.84L256.25,42.38a24.54,24.54,0,0,0-3.93-6.64h36.26A7.9,7.9,0,0,0,284,42.87a11.4,11.4,0,0,0,1,4.55l7,17.45,7.13-16.72-2.7-5.77a27.75,27.75,0,0,0-3.94-6.64h36.27a7.89,7.89,0,0,0-4.55,7.13,11.23,11.23,0,0,0,1,4.55l7.13,17.45,7-16.47a14,14,0,0,0,1.35-5.78,7.63,7.63,0,0,0-4.18-6.88Z"/><path d="M393.8,82.08c6.27,0,10.33-1.1,14.88-3.93-1.48,14.87-11.06,24-25.32,24-19.3,0-31.72-12.05-31.72-32.95,0-20.28,11.8-35.27,30.12-35.27C399,33.9,408.68,45.57,408.68,64H370.82C373.15,75.57,381.39,82.08,393.8,82.08ZM370.08,56.76v.37h17c0-11.93-2.21-16.72-8-16.72S370.08,46.43,370.08,56.76Z"/><path d="M464.61,44.34c0,7.5-4.3,12.54-10,12.54-.73-3.19-3.32-4.79-6.39-4.79a9.46,9.46,0,0,0-5.9,2V86.14c0,7,2.83,10.82,8.85,14.13H413.35c4.18-3.44,5.66-7,5.66-13.76V60.2c-.13-8.36-1.23-11.92-6-15.36L440.15,33.9V50.74c2.7-10.82,6.39-16.84,14.14-16.84C460.31,33.9,464.61,37.83,464.61,44.34Z"/></svg>