<svg xmlns="http://www.w3.org/2000/svg" viewBox="0 0 1920 1080"><defs><style>.cls-1{fill:#231f20;}.cls-2{fill:#fff;}.cls-3{fill:#f8f7f5;}</style></defs><title>bye</title><g id="Layer_1" data-name="Layer 1"><rect class="cls-1" x="-24.5" y="-12.5" width="1959" height="1124"/><path class="cls-2" d="M1934-12V1111H-24V-12H1934m1-1H-25V1112H1935V-13Z"/></g><g id="Layer_2" data-name="Layer 2"><path class="cls-3" d="M858,568.2c0,36.3-29.27,54.74-86.64,54.74H669.76c11.71-11.71,16.39-26.05,16.39-49.17V467.21c0-23.71-4.68-37.76-16.39-49.17H773.68c48.59,0,73.47,16.1,73.47,47.71,0,29.27-19.9,47.13-55.61,50.35v1.76C834.57,518.15,858,536,858,568.2ZM747.63,435.6v75.23h5.85c19.61,0,29.27-12.88,29.27-39.23,0-24-10-36-29.27-36Zm41.56,130c0-26.93-10.53-39.81-35.42-39.81h-6.14v79.62h9.66C776.61,605.38,789.19,591,789.19,565.57Z"/><path class="cls-3" d="M1025.71,469.26c-7.9,7.32-10.83,12.3-16.69,27.81L956.33,634.65c-14.34,37.76-28.39,51.23-53.27,51.23-20.2,0-33.37-11.42-33.37-29,0-15.52,10.83-27.52,26.34-29.27,3.81,18.15,10.54,25.76,22.84,25.76,10.24,0,16.09-7,16.09-19,0-5-1.46-11.12-4.09-18.74L877,493.56c-5.27-12-10.25-20.2-14.64-24.3h92.79c-7,5-11.12,12.3-11.12,19.91,0,4.39,1.76,11.71,3.81,17.56l18.44,49.77,19-50.94a38.36,38.36,0,0,0,2.93-14.64c0-9.07-3.8-15.8-12-21.66Z"/><path class="cls-3" d="M1117.33,579.62c14.93,0,24.59-2.63,35.42-9.37-3.51,35.42-26.34,57.08-60.3,57.08-46,0-75.52-28.68-75.52-78.45,0-48.3,28.1-84,71.72-84,41,0,64.1,27.81,64.1,71.72h-90.16C1068.16,564.11,1087.77,579.62,1117.33,579.62Zm-56.49-60.3v.88h40.39c0-28.4-5.27-39.81-19-39.81C1068.74,480.39,1060.84,494.73,1060.84,519.32Z"/><path class="cls-3" d="M1178.21,456.68a56.13,56.13,0,0,1-1.75-14.06c0-18.73,13.46-30.44,31-30.44s31,11.71,31,30.44a56.14,56.14,0,0,1-1.76,14.06l-25.47,96.89h-7.61Zm.59,141.67a31.18,31.18,0,1,1,31.32,31.33A31.29,31.29,0,0,1,1178.8,598.35Z"/></g></svg>