<svg id="Layer_1" data-name="Layer 1" xmlns="http://www.w3.org/2000/svg" viewBox="0 0 495 118"><title>play_v2</title><path d="M198,30.35c0,14.38-11.68,24.95-26.67,24.95-5.53,0-10.45-1.23-13.4-3.32,9-3.81,13.64-11.8,13.64-21.76,0-11.67-5.77-18.31-14.13-18.31h-.62V70.54c0,9.71,3.69,16,10.33,20.66h-43c4.92-4.92,6.89-11,6.89-20.66V25.8c0-9.83-2-15.86-6.89-20.65h40.2C185.33,5.15,198,13.26,198,30.35Z"/><path d="M208.81,77.43V29.61c0-7.74-1.84-10.94-6.51-14.14l29.87-14v76c0,6.76,1.47,10.32,5.65,13.77H203.16C207.34,87.75,208.81,84.19,208.81,77.43Z"/><path d="M310.35,79.89A15.6,15.6,0,0,1,294.49,93c-7,0-13.4-3.07-15.73-10.45C275,90,268.18,93,261.06,93,250.85,93,244,86.28,244,77.8c0-10.94,7.37-18.07,23.48-21.76l10.32-2.34V40.55c0-7-2.46-10-7-10-4.06,0-6.64,2.71-6.64,6.76,0,3.57,1.23,6,3.56,9.47-.86,3.2-5.28,7.25-11.18,7.25-6.89,0-10.94-4.79-10.94-11.43,0-10.2,11.55-17.82,27.53-17.82,18.69,0,28,7.49,28,24.21V73c0,5.78,2,8,5,8A6.85,6.85,0,0,0,310.35,79.89ZM277.9,78.78a23.33,23.33,0,0,1-.13-3.07V59.23l-1.6.37c-5.77,1.48-9.71,4.67-9.71,11.68,0,5.78,2.71,9.22,7,9.22A6.44,6.44,0,0,0,277.9,78.78Z"/><path d="M370.34,26.66c-3.32,3.07-4.55,5.16-7,11.68L341.2,96.11c-6,15.86-11.92,21.51-22.37,21.51-8.48,0-14-4.79-14-12.17a12.11,12.11,0,0,1,11.06-12.29c1.6,7.62,4.43,10.82,9.59,10.82,4.3,0,6.76-3,6.76-8a25.3,25.3,0,0,0-1.72-7.87L307.89,36.86c-2.21-5-4.3-8.48-6.14-10.2h39A10.38,10.38,0,0,0,336,35a26.64,26.64,0,0,0,1.6,7.37l7.74,20.9,8-21.39a16.12,16.12,0,0,0,1.23-6.14c0-3.81-1.6-6.64-5-9.1Z"/></svg>