<svg id="Layer_1" data-name="Layer 1" xmlns="http://www.w3.org/2000/svg" viewBox="0 0 495 118"><title>see_v2</title><path d="M152.54,84.37V59.67C164.46,76,175.52,84,186.34,84c7,0,11.56-3.2,11.56-8.61s-3.08-9-9.22-11.31l-18-6.76a28,28,0,0,1-18.68-26.8c0-16.71,13.89-28.76,33.06-28.76,11.31,0,19.42,2.09,27.41,7v23.6c-8.6-14.51-18.68-21.76-30.11-21.76-6.89,0-10.82,3-10.82,8.36,0,4.79,2.95,7.5,9.71,10.2l17.95,7.25c12.91,5.29,19.18,13.53,19.18,25.33,0,18.31-14.14,31-34.55,31C172.21,92.73,160.65,89.66,152.54,84.37Z"/><path d="M265.51,72.08c6.27,0,10.32-1.1,14.87-3.93-1.47,14.87-11.06,24-25.32,24-19.3,0-31.72-12.05-31.72-32.95,0-20.28,11.8-35.27,30.12-35.27,17.21,0,26.92,11.67,26.92,30.11H242.52C244.85,65.57,253.09,72.08,265.51,72.08ZM241.78,46.76v.37h17c0-11.93-2.22-16.72-8-16.72S241.78,36.43,241.78,46.76Z"/><path d="M327.46,72.08c6.27,0,10.33-1.1,14.88-3.93-1.48,14.87-11.07,24-25.33,24-19.3,0-31.71-12.05-31.71-32.95,0-20.28,11.8-35.27,30.12-35.27,17.2,0,26.92,11.67,26.92,30.11H304.48C306.81,65.57,315.05,72.08,327.46,72.08ZM303.74,46.76v.37h17c0-11.93-2.21-16.72-8-16.72S303.74,36.43,303.74,46.76Z"/></svg>