<svg id="Layer_1" data-name="Layer 1" xmlns="http://www.w3.org/2000/svg" viewBox="0 0 495 118"><title>solve_v2</title><path d="M96.54,84.37V59.67C108.46,76,119.52,84,130.34,84c7,0,11.56-3.2,11.56-8.61s-3.08-9-9.22-11.31l-18-6.76a27.94,27.94,0,0,1-18.68-26.8c0-16.71,13.89-28.76,33.06-28.76,11.31,0,19.42,2.09,27.41,7v23.6c-8.6-14.51-18.68-21.76-30.11-21.76-6.89,0-10.82,3-10.82,8.36,0,4.79,3,7.5,9.71,10.2l18,7.25c12.91,5.29,19.17,13.53,19.17,25.33,0,18.31-14.13,31-34.54,31C116.21,92.73,104.65,89.66,96.54,84.37Z"/><path d="M168.57,58.07c0-20.53,13.77-34.17,34.3-34.17s34.29,13.64,34.29,34.17S223.4,92.12,202.87,92.12,168.57,78.47,168.57,58.07Zm43.39,0c0-18.07-3.07-27.41-9.09-27.41s-9.1,9.34-9.1,27.41,3.07,27.29,9.1,27.29S212,76,212,58.07Z"/><path d="M248,76.51V28.69c0-7.74-1.84-10.94-6.51-14.14l29.87-14v76c0,6.76,1.47,10.32,5.65,13.76H242.33C246.51,86.83,248,83.27,248,76.51Z"/><path d="M343.87,25.74c-2.46,2.21-4.8,5.41-7.38,11.06L311.78,90.89h-1.84L283.26,35.45c-2.21-4.55-4.18-7.87-6.26-9.71h37.73c-2.58,1.23-3.93,3.56-3.93,6.88a17.08,17.08,0,0,0,1.23,5l7.37,18.56L326.66,39a18.54,18.54,0,0,0,1.59-6.76,7.16,7.16,0,0,0-3.81-6.51Z"/><path d="M382.34,72.08c6.27,0,10.33-1.1,14.88-3.93-1.48,14.87-11.07,24-25.33,24-19.29,0-31.71-12.05-31.71-32.95,0-20.28,11.8-35.27,30.12-35.27,17.21,0,26.92,11.67,26.92,30.11H359.36C361.69,65.57,369.93,72.08,382.34,72.08ZM358.62,46.76v.37h17c0-11.93-2.21-16.72-8-16.72S358.62,36.43,358.62,46.76Z"/></svg>