<?xml version="1.0" encoding="utf-8"?>
<!-- Generator: Adobe Illustrator 24.0.1, SVG Export Plug-In . SVG Version: 6.00 Build 0)  -->
<svg version="1.1" id="Layer_1" xmlns="http://www.w3.org/2000/svg" xmlns:xlink="http://www.w3.org/1999/xlink" x="0px" y="0px"
	 viewBox="0 0 1251 900" style="enable-background:new 0 0 1251 900;" xml:space="preserve">
<style type="text/css">
	.st0{fill:#FFFFFF;}
</style>
<path class="st0" d="M828.5,599c47.7,0,84.1-14.8,103.4-35.2c10.2-11.4,22.2-29,13.6-42.6c-7.4-11.9-19.9-14.2-34.7-6.8
	s-31.3,11.4-50,11.4c-18.2,0-37.5-6.8-47.7-17.1c-12.5-12.5-19.3-28.4-19.3-47.2c0-4.6,2.8-5.1,7.9-1.1
	c13.1,10.2,32.4,15.3,58.5,15.3c48.3,0,90.9-32.4,90.9-82.4c0-52.8-50-92-125.6-92c-84.7,0-150,54.5-150,146.6
	C675.6,533.7,732.5,599,828.5,599z"/>
<path class="st0" d="M479,509.2c9.1,0,14.2,5.1,20.4,14.8l27.3,42.6c10.2,16.5,18.8,27.8,38.7,27.8s29-7.9,38.7-30.1
	c11.9-27.3,24.4-60.2,35.8-104.5c12.5-49.4,18.2-80.1,18.2-105.1s-7.9-39.8-35.2-44.9C585.3,303,534.7,299,479,299
	s-106.3,4-143.8,10.8c-27.3,5.1-35.2,19.9-35.2,44.8s5.7,55.7,18.2,105.1C329.6,504,342,537,354,564.2c9.7,22.2,18.8,30.1,38.7,30.1
	c19.9,0,28.4-11.4,38.7-27.8l27.3-42.6C464.8,514.3,469.9,509.2,479,509.2z"/>
</svg>
